<?xml version="1.0" encoding="utf-8"?>
<!-- Generator: Adobe Illustrator 24.2.0, SVG Export Plug-In . SVG Version: 6.00 Build 0)  -->
<svg version="1.1" id="Layer_1" xmlns="http://www.w3.org/2000/svg" xmlns:xlink="http://www.w3.org/1999/xlink" x="0px" y="0px"
	 viewBox="0 0 595.28 128.76" style="enable-background:new 0 0 595.28 128.76;" xml:space="preserve">
<style type="text/css">
	.st0{fill:#161616;}
	.st1{fill:#0E0E0E;}
</style>
<g>
	<path class="st0" d="M154.34,0c4.6,1.79,8.96,4,10.78,8.96c1.02,2.77,2.56,1.66,4.33,1.3c12.03-2.4,20.63,4.37,20.75,16.66
		c0.17,16.75,0.15,33.51,0.01,50.27c-0.07,8.82-5.39,14.08-13.57,13.95c-7.84-0.12-12.79-5.39-12.83-13.99
		c-0.08-17.57-0.02-35.15-0.02-52.72c0-1.94,0-3.88,0-5.81c-0.56-0.3-1.12-0.61-1.67-0.91c-8.17,8.47-16.26,17.01-24.52,25.38
		c-10.1,10.22-17.18,10.6-27.98,1.3c-2.31-1.99-3.14-1.14-4.82,0.45c-9.31,8.81-15.64,8.72-24.63-0.17
		c-7.7-7.62-15.37-15.28-23.06-22.92c-0.87-0.87-1.67-1.82-2.6-2.6C50.9,16.1,46.28,11.61,42.31,14c-4.19,2.52-2.92,8.88-1.94,13.73
		c0.8,3.92,3.32,6.9,6.12,9.68c14.38,14.24,28.65,28.61,43.1,42.78c7.26,7.12,10.2,15.52,6.72,25.04
		c-3.45,9.43-10.75,14.61-21.1,14.92c-1.19,0.04-2.47-0.26-3.39,0.89c-3.14,3.94-7.89,5.38-12.07,7.72c-3.68,0-7.37,0-11.05,0
		c-2.96-1.88-6.37-3.31-8.8-5.72c-12.36-12.26-25.25-23.99-36.64-37.2c0-2.45,0-4.91,0-7.36c8.4-10.61,13.87-10.85,23.74-1.03
		c10.85,10.79,21.69,21.59,32.53,32.4c2.32,2.31,4.79,4.32,7.79,5.81c3.29,1.63,4.82,0.54,5.87-2.59
		c2.56-7.68,1.13-14.52-4.41-20.34c-5.35-5.61-10.94-10.98-16.44-16.45c-9.26-9.21-18.61-18.33-27.75-27.65
		c-6.35-6.47-8.55-14.25-5.62-22.99c2.91-8.69,9.1-13.73,18.23-15.05c1.41-0.2,2.98-0.1,3.87-1.43C44.13,4.55,49.06,2.53,53.63,0
		c3.28,0,6.55,0,9.83,0c6.16,1.9,10.96,5.7,15.44,10.26c8.01,8.17,16.49,15.87,24.46,24.07c2.96,3.04,4.52,3.86,7.9,0.23
		c8.35-8.97,17.35-17.34,25.96-26.07c3.57-3.62,7.19-7.02,12.21-8.5C151.06,0,152.7,0,154.34,0z M38.38,13.47
		c-1.59,0.16-2.59,0.11-3.51,0.38c-14.59,4.28-19.09,21.59-8.18,32.79c14.12,14.5,28.62,28.63,42.99,42.88
		c6.65,6.59,9.43,14.34,6.4,23.39c-1.59,4.75,0.16,4.63,3.81,3.74c14.85-3.64,19.98-21.69,8.99-32.98
		c-13.55-13.9-27.29-27.63-41.33-41.04C39.13,34.6,33.98,25.94,38.38,13.47z M187.46,51.95c-0.02,0-0.04,0-0.05,0
		c0-8.78,0.24-17.57-0.07-26.33c-0.3-8.48-8.01-14.56-15.79-12.99c-3.4,0.69-5.09,2.09-5.04,6.13c0.25,19.39,0.07,38.79,0.14,58.18
		c0.03,6.98,3.93,11.33,9.97,11.5c6.33,0.18,10.69-4.27,10.81-11.38C187.57,68.69,187.46,60.32,187.46,51.95z M68.88,119.35
		c-5.32-1.75-8.93-4.99-12.42-8.5C45.09,99.4,33.68,87.98,22.16,76.67c-4.3-4.22-9.34-4.33-13.11-0.76
		c-3.31,3.13-3.76,8.59-0.3,12.11c11.18,11.34,22.31,22.76,34.03,33.53C50.47,128.59,60.92,127.37,68.88,119.35z M122.99,48.02
		c4.57,0.11,7.81-2.18,10.79-5.18c8.63-8.69,17.33-17.31,26-25.97c4.22-4.21,4.15-7-0.24-11.01c-4.57-4.17-11-4.17-15.97,0.62
		c-10.73,10.34-21.17,20.99-31.85,31.39c-2.03,1.98-1.64,3.14,0.13,4.89C115.01,45.9,118.43,48.27,122.99,48.02z M44.43,10.49
		c5.96,1.34,10.32,4.58,14.25,8.53c8.34,8.38,16.64,16.8,25.07,25.09c6.57,6.46,15.51,5.23,20.26-2.46c0.85-1.38,0.68-2.17-0.3-3.07
		C92.39,28.02,82.21,16.23,70.14,6.47C62.31,0.13,49.63,2.39,44.43,10.49z"/>
	<path class="st0" d="M591.57,63.77c-8.89-1.93-9.18-1.73-9.18,6.57c0,4.07,0.03,8.13-0.01,12.2c-0.02,1.72,0.62,3.86-2.33,3.97
		c-3.34,0.13-2.71-2.25-2.73-4.19c-0.03-3.86-0.22-7.74,0.05-11.58c0.34-4.92,0.22-9.05-6.64-7.78c-1.73,0.32-2.54-0.68-2.47-2.5
		c0.07-1.86,1.37-1.73,2.55-1.72c6.92,0.02,13.84,0.09,20.76,0.15C591.57,60.5,591.57,62.13,591.57,63.77z"/>
	<path class="st0" d="M486.96,71.42c2.65-3.58,5.14-6.74,7.39-10.08c1.26-1.87,2.63-3.06,4.98-2.61c3.02,0.58,1.49,2.99,1.54,4.47
		c0.2,6.12,0.2,12.25,0.01,18.37c-0.05,1.82,1.57,5.08-2.47,4.85c-3.79-0.21-2.15-3.31-2.25-5.19c-0.22-4.04-0.07-8.1-0.07-14.02
		c-2.44,3.29-4.04,5.19-5.35,7.28c-2.39,3.82-4.55,5.34-7.27,0.2c-1.18-2.23-2.99-4.14-5.71-5.84c0,4.78-0.02,9.56,0.01,14.34
		c0.01,1.72,0.09,3.33-2.38,3.32c-2.35-0.01-2.51-1.44-2.5-3.26c0.05-6.94-0.01-13.89,0.05-20.83c0.01-1.3-0.67-3.13,1.28-3.61
		c1.86-0.46,3.55-0.06,4.8,1.76C481.44,64.06,484.03,67.43,486.96,71.42z"/>
	<path class="st0" d="M257.87,68.61c0,4.45,0.12,8.84-0.06,13.21c-0.07,1.69,1.39,4.54-2.13,4.61c-3.88,0.08-2.5-2.99-2.55-4.91
		c-0.14-6.11-0.14-12.23,0.01-18.34c0.04-1.55-1.23-3.89,1.67-4.44c2.04-0.39,3.45,0.52,4.69,2.12c4.06,5.25,8.21,10.42,13.71,15.3
		c0-4.33-0.12-8.66,0.06-12.97c0.07-1.68-1.34-4.37,2.23-4.51c3.48-0.14,2.57,2.39,2.59,4.22c0.06,6.32,0.1,12.64-0.02,18.95
		c-0.03,1.6,1.11,3.92-1.64,4.54c-2,0.45-3.44-0.44-4.68-2.09c-3.32-4.39-6.74-8.69-10.21-12.95
		C260.7,70.35,260.29,68.75,257.87,68.61z"/>
	<path class="st1" d="M277.03,18.99c-3.72,4.87-6.3,8.26-9.2,12.07c-2.8-3.67-5.47-7.16-8.6-11.27c-1.19,5.21-0.39,9.96-0.64,14.64
		c-0.09,1.7,0.64,3.77-2.38,3.89c-3.15,0.13-2.43-2.01-2.44-3.69c-0.04-6.72-0.06-13.45,0.03-20.17c0.02-1.24-0.88-3.03,1.18-3.57
		c1.91-0.5,3.57-0.07,4.8,1.69c2.54,3.63,5.16,7.22,7.92,11.07c2.79-3.81,5.28-7.03,7.55-10.4c1.29-1.9,2.83-2.85,5.11-2.47
		c3.04,0.51,1.56,2.9,1.6,4.38c0.17,6.52,0.07,13.04,0.08,19.56c0,1.81,0.46,3.68-2.55,3.63c-3.08-0.05-2.41-2.09-2.43-3.77
		C276.99,29.96,277.03,25.34,277.03,18.99z"/>
	<path class="st1" d="M445.07,68.88c0,4.65-0.05,9.3,0.02,13.95c0.03,2.01-0.04,3.68-2.76,3.61c-2.76-0.07-1.99-2.11-2.01-3.54
		c-0.07-6.73-0.09-13.45,0.02-20.18c0.02-1.39-1.03-3.47,1.5-3.96c2-0.39,3.41,0.45,4.66,2.09c4.06,5.35,8.26,10.59,13.57,17.35
		c0-6.4,0.04-11.26-0.02-16.12c-0.02-2,0-3.54,2.8-3.43c2.62,0.11,2.24,1.76,2.24,3.33c0.02,6.73,0.08,13.45-0.05,20.18
		c-0.03,1.4,1.07,3.49-1.23,4.14c-2.18,0.62-3.82-0.32-5.22-2.17c-4.01-5.3-8.19-10.48-12.31-15.71
		C445.88,68.58,445.48,68.73,445.07,68.88z"/>
	<path class="st1" d="M542.42,66.77c0,6.45-0.02,11.28,0.01,16.11c0.01,1.88,0.29,3.74-2.65,3.58c-2.54-0.14-2.25-1.79-2.25-3.42
		c0-6.73-0.07-13.47,0.06-20.2c0.03-1.36-1.22-3.48,1.28-4.03c1.88-0.42,3.51,0.01,4.82,1.73c4.15,5.44,8.43,10.78,13.79,17.61
		c0-6.31-0.04-10.89,0.02-15.47c0.02-1.69-0.69-3.82,2.32-3.96c3.13-0.15,2.43,2.03,2.44,3.72c0.04,6.73,0.06,13.47-0.02,20.2
		c-0.02,1.27,0.8,3.1-1.13,3.66c-1.89,0.54-3.47-0.06-4.77-1.78C552.14,78.99,547.8,73.59,542.42,66.77z"/>
	<path class="st1" d="M224.69,72.54c0-13.83,0-13.98,13.92-13.68c2.49,0.05,7.37-2.35,7.34,1.99c-0.04,4.21-4.89,1.26-7.48,2.05
		c-1.12,0.34-2.44,0.01-3.66,0.07c-2.46,0.12-5.45-0.99-5.38,3.55c0.07,4.24,2.87,3.03,5.07,3.17c1.63,0.11,3.27,0.03,4.91,0.02
		c1.28,0,2.42,0.06,2.47,1.84c0.05,1.93-0.87,2.48-2.63,2.37c-1.63-0.1-3.28,0.06-4.91-0.04c-2.94-0.19-4.99-0.03-4.96,4.04
		c0.03,3.8,1.55,4.41,4.75,4.19c3.26-0.22,6.54-0.07,9.82-0.04c1.18,0.01,2.51-0.18,2.59,1.68c0.07,1.73-0.5,2.68-2.39,2.66
		c-5.52-0.03-11.05-0.07-16.57,0.02c-2.61,0.04-2.97-1.37-2.91-3.5C224.76,79.49,224.69,76.02,224.69,72.54z"/>
	<path class="st1" d="M350.69,58.72c1.63,0,3.27,0.05,4.9-0.01c3.35-0.12,6.03,0.94,7.48,4.16c1.44,3.2,1.9,7.19-0.81,9.09
		c-5.28,3.68-1.35,6.28,0.01,9.45c0.66,1.53,3.87,3.12,1.13,4.8c-2.16,1.32-4.18-0.41-5.22-2.77c-0.41-0.92-0.98-1.77-1.5-2.64
		c-1.85-3.1-3.26-6.88-8.11-5.66c-4.84,1.22-1.49,5.08-2.33,7.6c-0.53,1.59,0.48,3.85-2.58,3.71c-2.92-0.13-2.38-2.18-2.39-3.94
		c-0.02-6.53,0.14-13.06-0.07-19.58c-0.1-3.05,0.54-4.65,3.97-4.24C346.99,58.9,348.85,58.72,350.69,58.72z M351.48,63.03
		c-1.95,0.26-5.48-1.55-5.5,3.89c-0.02,4.79,2.74,4.03,5.51,3.98c3.18-0.06,7.37,0.74,7.49-3.97
		C359.09,62.67,355.36,62.8,351.48,63.03z"/>
	<path class="st1" d="M235.04,10.12c3.6,0.17,6.59,0.81,9.29,2.4c0.96,0.56,2.21,1.21,1.11,2.78c-0.77,1.09-1.49,1.91-2.94,1.04
		c-2.95-1.77-6.2-1.91-9.51-1.59c-1.73,0.17-3.34,0.88-3.63,2.71c-0.32,1.98,1.28,2.86,2.9,3.35c2.92,0.88,5.93,1.51,8.82,2.48
		c3.88,1.29,6.33,3.9,5.82,8.22c-0.46,3.89-2.98,6.04-6.82,6.76c-4.98,0.94-9.81,0.82-14.08-2.29c-1.03-0.75-3.59-0.94-2.14-3.29
		c1.13-1.82,2.41-2.25,4.36-0.59c3.02,2.58,6.77,2.59,10.49,1.94c1.75-0.3,2.99-1.38,3.15-3.26c0.17-1.94-0.99-3.05-2.69-3.55
		c-2.73-0.81-5.54-1.39-8.25-2.27c-3.67-1.2-7.09-2.99-6.62-7.57c0.48-4.67,4.16-6.16,8.18-6.94
		C233.48,10.23,234.51,10.18,235.04,10.12z"/>
	<path class="st1" d="M509.23,71.81c0-13.09,0-13.23,13.24-12.98c2.64,0.05,7.56-1.96,7.65,1.69c0.11,4.79-4.96,1.67-7.65,2.35
		c-1.92,0.48-4.06,0.11-6.09,0.12c-2.57,0.02-2.11,1.91-2.14,3.48c-0.03,1.65-0.23,3.42,2.34,3.25c1.02-0.07,2.11-0.24,3.04,0.04
		c2.23,0.68,6.4-1.99,6.49,1.81c0.1,4.39-4.29,1.92-6.64,2.23c-2.81,0.37-5.38-0.45-5.42,4.18c-0.04,4.62,2.43,4.16,5.32,4.1
		c2.85-0.06,5.71-0.08,8.56,0.02c1.25,0.05,3.05-0.59,3.04,1.82c0,1.85-0.9,2.52-2.63,2.51c-5.51-0.02-11.02-0.08-16.52,0.03
		c-2.36,0.05-2.64-1.19-2.61-3.06C509.28,79.55,509.23,75.68,509.23,71.81z"/>
	<path class="st1" d="M391.17,85.78c3.93-8.38,7.83-16.61,11.66-24.88c0.76-1.65,1.73-2.53,3.7-2.46c2.13,0.08,2.64,1.53,3.34,3.03
		c3.28,7.01,6.63,13.99,9.87,21.02c0.52,1.12,2.35,2.58,0.49,3.61c-1.51,0.83-3.9,0.96-4.5-1.47c-1.34-5.51-5.45-4.85-9.56-4.84
		c-4.1,0.01-8.14-0.64-9.65,4.78C395.8,87.16,393.56,86.7,391.17,85.78z M406.07,64.57c-1.67,4.47-4.09,7.24-4.37,10.66
		c3.23,0,6.12,0,9.4,0c-1.2-2.71-2.16-4.91-3.16-7.09C407.55,67.27,407.07,66.45,406.07,64.57z"/>
	<path class="st1" d="M312.81,72.56c0-13.85,0-13.98,13.7-13.73c2.61,0.05,7.62-2.04,7.58,1.83c-0.05,4.72-5.16,1.5-7.94,2.2
		c-1.92,0.48-4.06,0.1-6.1,0.12c-2.49,0.02-2.21,1.81-2.23,3.44c-0.02,1.7-0.09,3.35,2.38,3.29c2.45-0.06,4.9,0.04,7.35-0.02
		c1.69-0.04,2.71,0.39,2.58,2.37c-0.11,1.72-1.21,1.83-2.5,1.83c-1.63,0-3.28,0.14-4.9-0.02c-3.42-0.35-5.1,0.35-5.08,4.5
		c0.02,4.41,2.55,3.7,5.14,3.7c3.27-0.01,6.54,0.01,9.81,0c1.39,0,2.3,0.34,2.23,2.05c-0.06,1.52-0.71,2.27-2.18,2.27
		c-5.92,0.02-11.85-0.01-17.77,0.02c-2.12,0.01-2.1-1.34-2.08-2.85C312.83,79.91,312.81,76.24,312.81,72.56z"/>
	<path class="st0" d="M162.8,113.13c-0.1-8.11,6.02-14.17,14.31-14.16c8.19,0.01,14.29,6.17,14.23,14.35
		c-0.05,7.47-6.55,13.98-14.09,14.12C169.48,127.58,162.9,121.07,162.8,113.13z M176.9,124.59c5.9,0.09,11.54-5.3,11.7-11.19
		c0.16-6.03-4.99-11.4-11.1-11.59c-6.56-0.2-11.96,4.91-11.91,11.28C165.62,119.12,170.92,124.5,176.9,124.59z"/>
	<path class="st1" d="M379.67,58.72c2.85,0,5.7-0.02,8.55,0.01c1.21,0.01,2.51-0.03,2.58,1.74c0.08,1.82-0.82,2.78-2.57,2.45
		c-7.03-1.35-6.74,3.1-6.52,7.83c0.2,4.26,0.05,8.54,0.03,12.81c-0.01,1.43,0.09,2.9-2.1,2.9c-2.04-0.01-2.9-0.74-2.85-2.88
		c0.12-5.08-0.22-10.18,0.12-15.24c0.28-4.13-0.82-6.07-5.27-5.43c-1.69,0.25-3.92,0.58-3.66-2.43c0.23-2.73,2.37-1.63,3.74-1.71
		C374.37,58.6,377.02,58.72,379.67,58.72z"/>
	<path class="st1" d="M295.41,58.72c2.85,0,5.7,0.01,8.56,0c1.49-0.01,2.85-0.06,2.83,2.11c-0.02,2.09-1.29,2.38-2.79,2.09
		c-5.53-1.04-6.42,1.76-6.04,6.46c0.38,4.65,0.04,9.35,0.1,14.03c0.02,1.85-0.22,3.03-2.57,3.06c-2.52,0.04-2.47-1.4-2.46-3.12
		c0.02-4.88-0.28-9.78,0.09-14.64c0.33-4.33-0.62-6.62-5.52-5.83c-1.43,0.23-3.44,0.57-3.52-2.03c-0.09-2.69,1.89-2.09,3.39-2.12
		C290.11,58.67,292.76,58.72,295.41,58.72z"/>
	<path class="st1" d="M431.89,72.39c0,3.66-0.06,7.32,0.03,10.97c0.04,1.87-0.25,3.04-2.56,3.12c-2.52,0.08-2.47-1.42-2.46-3.12
		c0.01-7.32,0.06-14.63-0.03-21.95c-0.03-2.15,0.8-2.77,2.86-2.74c2.09,0.03,2.2,1.19,2.18,2.74
		C431.86,65.08,431.89,68.73,431.89,72.39z"/>
</g>
</svg>
